<svg width="800" height="600" viewBox="0 0 800 600" fill="none" xmlns="http://www.w3.org/2000/svg">
  <!-- Fondo -->
  <rect width="800" height="600" fill="#F9FAFB"/>
  
  <!-- Panel de dashboard -->
  <rect x="100" y="50" width="600" height="500" rx="10" fill="white" stroke="#E5E7EB" stroke-width="2"/>
  
  <!-- Barra lateral -->
  <rect x="100" y="50" width="200" height="500" rx="10" fill="#6C63FF" fill-opacity="0.05"/>
  
  <!-- Logo en barra lateral -->
  <circle cx="150" cy="100" r="20" fill="#6C63FF"/>
  <rect x="180" y="95" width="80" height="10" rx="5" fill="#6C63FF"/>
  
  <!-- Elementos de menú -->
  <rect x="130" y="170" width="140" height="40" rx="5" fill="#6C63FF" fill-opacity="0.1"/>
  <circle cx="150" cy="190" r="10" fill="#6C63FF"/>
  <rect x="170" y="185" width="70" height="10" rx="5" fill="#6C63FF"/>
  
  <rect x="130" y="220" width="140" height="40" rx="5" fill="transparent"/>
  <circle cx="150" cy="240" r="10" fill="#94A3B8"/>
  <rect x="170" y="235" width="70" height="10" rx="5" fill="#94A3B8"/>
  
  <rect x="130" y="270" width="140" height="40" rx="5" fill="transparent"/>
  <circle cx="150" cy="290" r="10" fill="#94A3B8"/>
  <rect x="170" y="285" width="70" height="10" rx="5" fill="#94A3B8"/>
  
  <rect x="130" y="320" width="140" height="40" rx="5" fill="transparent"/>
  <circle cx="150" cy="340" r="10" fill="#94A3B8"/>
  <rect x="170" y="335" width="70" height="10" rx="5" fill="#94A3B8"/>
  
  <!-- Contenido principal -->
  <rect x="330" y="80" width="340" height="40" rx="5" fill="#1F2937"/>
  
  <!-- Tarjetas de estadísticas -->
  <rect x="330" y="150" width="160" height="100" rx="8" fill="white" stroke="#E5E7EB" stroke-width="2"/>
  <rect x="350" y="170" width="80" height="10" rx="5" fill="#6C63FF"/>
  <rect x="350" y="190" width="120" height="20" rx="5" fill="#1F2937"/>
  <rect x="350" y="220" width="60" height="8" rx="4" fill="#9CA3AF"/>
  
  <rect x="510" y="150" width="160" height="100" rx="8" fill="white" stroke="#E5E7EB" stroke-width="2"/>
  <rect x="530" y="170" width="80" height="10" rx="5" fill="#6C63FF"/>
  <rect x="530" y="190" width="120" height="20" rx="5" fill="#1F2937"/>
  <rect x="530" y="220" width="60" height="8" rx="4" fill="#9CA3AF"/>
  
  <!-- Gráfico -->
  <rect x="330" y="280" width="340" height="200" rx="8" fill="white" stroke="#E5E7EB" stroke-width="2"/>
  <rect x="350" y="300" width="100" height="15" rx="5" fill="#1F2937"/>
  
  <!-- Líneas del gráfico -->
  <path d="M350 400 L390 380 L430 420 L470 360 L510 390 L550 350 L590 370 L630 340" stroke="#6C63FF" stroke-width="3" stroke-linecap="round" stroke-linejoin="round"/>
  
  <!-- Puntos del gráfico -->
  <circle cx="390" cy="380" r="5" fill="#6C63FF"/>
  <circle cx="430" cy="420" r="5" fill="#6C63FF"/>
  <circle cx="470" cy="360" r="5" fill="#6C63FF"/>
  <circle cx="510" cy="390" r="5" fill="#6C63FF"/>
  <circle cx="550" cy="350" r="5" fill="#6C63FF"/>
  <circle cx="590" cy="370" r="5" fill="#6C63FF"/>
  
  <!-- Ejes del gráfico -->
  <line x1="350" y1="340" x2="350" y2="440" stroke="#E5E7EB" stroke-width="2"/>
  <line x1="350" y1="440" x2="630" y2="440" stroke="#E5E7EB" stroke-width="2"/>
  
  <!-- Etiquetas del eje X -->
  <rect x="380" y="450" width="20" height="8" rx="4" fill="#9CA3AF"/>
  <rect x="440" y="450" width="20" height="8" rx="4" fill="#9CA3AF"/>
  <rect x="500" y="450" width="20" height="8" rx="4" fill="#9CA3AF"/>
  <rect x="560" y="450" width="20" height="8" rx="4" fill="#9CA3AF"/>
  
  <!-- Etiquetas del eje Y -->
  <rect x="330" y="340" width="15" height="8" rx="4" fill="#9CA3AF"/>
  <rect x="330" y="370" width="15" height="8" rx="4" fill="#9CA3AF"/>
  <rect x="330" y="400" width="15" height="8" rx="4" fill="#9CA3AF"/>
  <rect x="330" y="430" width="15" height="8" rx="4" fill="#9CA3AF"/>
</svg>